<?xml version="1.0" encoding="UTF-8" standalone="no"?><!DOCTYPE svg PUBLIC "-//W3C//DTD SVG 1.1//EN" "http://www.w3.org/Graphics/SVG/1.1/DTD/svg11.dtd"><svg width="100%" height="100%" viewBox="0 0 430 81" version="1.1" xmlns="http://www.w3.org/2000/svg" xmlns:xlink="http://www.w3.org/1999/xlink" xml:space="preserve" xmlns:serif="http://www.serif.com/" style="fill-rule:evenodd;clip-rule:evenodd;stroke-linejoin:round;stroke-miterlimit:1.41421;"><g transform="matrix(0.845487,0,0,0.845487,-67.9854,0.133624)"><path d="M125.511,73.295l13.472,-0.191c-0.19,-0.095 -0.668,-0.669 -1.05,-1.433l-34.399,-69.672c-0.478,-0.765 -0.86,-1.147 -0.765,-1.338l-14.333,0.478c0.287,0.191 0.765,0.764 0.574,1.433l-8.6,39.663l11.944,0.095l5.255,-26.951l27.902,57.916Z" style="fill-rule:nonzero;"/><path d="M150.273,93.939l11.851,0l-7.742,-54.189c1.147,-4.014 5.352,-9.558 12.425,-9.558c9.557,0 16.342,6.977 17.872,17.395c0.954,7.463 -1.625,16.163 -10.896,17.119l0.765,9.927c15,-0.286 23.977,-12.126 21.588,-28.57c-2.005,-14.245 -11.935,-25.702 -27.131,-25.702c-8.028,0 -13.476,4.581 -15.961,8.877l-1.242,-7.635l-11.755,0l10.226,72.336Z" style="fill-rule:nonzero;"/><path d="M243.644,73.678c12.611,-2.962 19.2,-14.046 17.385,-27.041c-1.623,-11.848 -10.98,-22.263 -24.173,-25.512l0.956,11.275c6.119,2.867 10.612,8.982 11.569,15.766c0.954,6.497 -1.243,12.135 -6.693,14.714l0.956,10.798Zm-15.488,0.191l-0.956,-11.275c-6.119,-2.676 -10.516,-8.6 -11.568,-15.766c-0.859,-6.211 1.434,-11.848 6.692,-14.715l-0.956,-10.701c-12.133,3.249 -19.009,14.332 -17.289,26.754c1.814,12.517 10.694,22.741 24.077,25.703Z" style="fill-rule:nonzero;"/><path d="M297.639,74.442l-0.764,-9.653c-8.218,-1.051 -15.194,-8.888 -16.531,-18.158c-1.434,-10.035 4.204,-16.821 12.804,-16.821c7.358,0 12.709,4.492 15.098,8.602l4.108,29.053c1.911,5.257 7.549,6.977 10.989,6.977c5.351,0 8.6,-2.294 9.747,-4.874l-3.631,-5.818c-0.287,0.573 -1.051,0.765 -1.911,0.765c-2.772,0 -4.109,-2.677 -4.778,-6.979l-5.16,-35.933l-11.467,0l0.86,6.203c-2.006,-2.864 -7.74,-7.445 -15.575,-7.445c-14.811,0 -24.749,11.743 -22.551,27.417c2.007,14.527 14.429,26.282 28.762,26.664Z" style="fill-rule:nonzero;"/><path d="M345.335,93.939l11.851,0l-7.742,-54.189c1.147,-4.014 5.352,-9.558 12.425,-9.558c9.557,0 16.342,6.977 17.871,17.395c0.955,7.463 -1.624,16.163 -10.895,17.119l0.765,9.927c15,-0.286 23.976,-12.126 21.588,-28.57c-2.005,-14.245 -11.935,-25.702 -27.131,-25.702c-8.028,0 -13.476,4.581 -15.961,8.877l-1.242,-7.635l-11.756,0l10.227,72.336Z" style="fill-rule:nonzero;"/><path d="M411.942,49.88l-1.719,-14.335c-0.478,-3.441 4.011,-5.639 10.124,-5.639c7.561,0 14.438,3.727 15.966,5.734l1.91,-9.457c-1.241,-1.241 -7.831,-5.822 -17.972,-5.822c-12.893,0 -23.116,6.49 -21.683,16.808c1.051,7.264 6.498,10.704 13.374,12.711Zm24.18,23.033c7.259,-2.485 10.793,-8.028 9.551,-16.534c-1.146,-8.315 -7.354,-11.373 -18.721,-13.858l0.956,10.991c3.63,1.147 6.209,2.963 6.495,5.256l1.719,14.145Zm-15.297,1.625l-0.765,-10.023c-7.736,-0.765 -14.612,-4.398 -16.905,-6.788l-0.286,11.37c2.388,1.618 8.213,4.867 17.956,5.441Z" style="fill-rule:nonzero;"/><path d="M479.225,20.552l0.764,9.844c6.123,1.242 10.901,5.925 11.762,12.424l-9.749,-0.382l1.243,8.971l19.962,-0.286c0.287,-1.336 0.382,-4.39 0.096,-6.967c-1.624,-11.467 -9.65,-22.075 -24.078,-23.604Zm-25.99,28.09c2.198,15.873 14.333,25.991 31.054,25.991c9.937,0 17.676,-2.482 21.499,-5.823l-3.631,-8.983c-3.44,3.062 -10.033,4.592 -17.295,4.592c-8.695,0 -17.294,-4.879 -18.823,-13.391l-3.536,-27.036c-7.452,4.779 -10.797,14.049 -9.268,24.65Z" style="fill-rule:nonzero;"/><path d="M534.532,73.327l3.651,-0.081c-0.054,-0.028 -0.19,-0.19 -0.217,-0.433l-0.784,-4.977c0.541,0.027 1.217,0.027 1.623,0.027c4.056,0 7.788,-2.783 7.058,-7.87c-0.703,-5.113 -5.192,-7.517 -9.573,-7.517c-1.758,0 -4.138,0.297 -4.516,0.378l0.27,3.162c1.028,-0.136 2.948,-0.271 4.597,-0.271c2.542,0 5.49,1.434 5.923,4.573c0.486,3.436 -1.92,4.384 -5.815,4.384c-1.541,0 -2.65,-0.082 -3.326,-0.163l1.109,8.49c0.027,0.217 0.108,0.271 0,0.298Z" style="fill-rule:nonzero;"/><path d="M551.492,73.327l3.623,-0.081c-0.054,-0.028 -0.189,-0.19 -0.216,-0.433l-1.244,-8.115c0.487,0.054 1.028,0.108 1.569,0.108c4.245,0 7.545,-2.107 6.977,-6.219c-0.622,-4.436 -4.003,-6.111 -8.843,-6.111c-1.947,0 -4.219,0.297 -4.652,0.351l0.271,3.162c0.568,-0.081 2.92,-0.379 4.543,-0.379c2.866,0 5.03,0.893 5.381,3.356c0.298,2.111 -1.216,2.841 -4.164,2.841c-2.245,0 -4.462,-0.27 -4.814,-0.351l1.542,11.573c0.027,0.244 0.108,0.271 0.027,0.298Zm10.682,-0.027l3.84,-0.027c-0.081,-0.027 -0.216,-0.244 -0.352,-0.433l-3.245,-4.598l-3.083,0.892l2.84,4.166Z" style="fill-rule:nonzero;"/><path d="M582.408,73.3c4.759,-1.218 6.841,-5.599 6.165,-10.414c-0.622,-4.49 -3.892,-8.764 -8.87,-10.062l0.324,3.543c2.76,1.217 4.573,4.057 4.978,6.898c0.433,2.975 -0.487,5.545 -2.894,6.654l0.297,3.381Zm-5.817,0.081l-0.324,-3.489c-2.787,-1.082 -4.735,-3.841 -5.195,-7.006c-0.378,-2.705 0.622,-5.437 3.111,-6.654l-0.324,-3.381c-4.679,1.244 -7.003,5.734 -6.354,10.414c0.675,4.679 3.892,8.899 9.086,10.116Z" style="fill-rule:nonzero;"/></g></svg>